<?xml version="1.0" encoding="UTF-8" standalone="no"?>
<svg
   xmlns:dc="http://purl.org/dc/elements/1.1/"
   xmlns:cc="http://creativecommons.org/ns#"
   xmlns:rdf="http://www.w3.org/1999/02/22-rdf-syntax-ns#"
   xmlns:svg="http://www.w3.org/2000/svg"
   xmlns="http://www.w3.org/2000/svg"
   xmlns:sodipodi="http://sodipodi.sourceforge.net/DTD/sodipodi-0.dtd"
   xmlns:inkscape="http://www.inkscape.org/namespaces/inkscape"
   inkscape:export-ydpi="14.25"
   inkscape:export-xdpi="14.25"
   inkscape:export-filename="D:\Code\CanonicalCopy\icons\icon38.png"
   sodipodi:docname="ccopy.svg"
   inkscape:version="1.0 (4035a4fb49, 2020-05-01)"
   id="svg8"
   version="1.1"
   viewBox="0 0 67.733332 67.733335"
   height="256"
   width="256">
  <defs
     id="defs2" />
  <sodipodi:namedview
     inkscape:document-rotation="0"
     inkscape:window-maximized="0"
     inkscape:window-y="0"
     inkscape:window-x="1913"
     inkscape:window-height="1008"
     inkscape:window-width="1278"
     inkscape:pagecheckerboard="true"
     units="px"
     showgrid="true"
     inkscape:current-layer="layer1"
     inkscape:document-units="px"
     inkscape:cy="126.76962"
     inkscape:cx="93.838531"
     inkscape:zoom="2.2627417"
     inkscape:pageshadow="2"
     inkscape:pageopacity="0.0"
     borderopacity="1.0"
     bordercolor="#666666"
     pagecolor="#ffffff"
     id="base">
    <inkscape:grid
       spacingy="4.2333333"
       spacingx="4.2333333"
       empspacing="4"
       id="grid830"
       type="xygrid" />
  </sodipodi:namedview>
  <metadata
     id="metadata5">
    <rdf:RDF>
      <cc:Work
         rdf:about="">
        <dc:format>image/svg+xml</dc:format>
        <dc:type
           rdf:resource="http://purl.org/dc/dcmitype/StillImage" />
        <dc:title></dc:title>
      </cc:Work>
    </rdf:RDF>
  </metadata>
  <g
     transform="translate(0,-270.54165)"
     id="layer1"
     inkscape:groupmode="layer"
     inkscape:label="Layer 1">
    <path
       sodipodi:nodetypes="cccccc"
       d="m 11.996847,273.19568 24.392353,-2e-5 9.756942,8.7345 v 39.3053 H 11.996847 Z"
       style="fill:#ffffff;stroke:#000000;stroke-width:2.39759;stroke-linecap:round;stroke-miterlimit:4;stroke-dasharray:none"
       id="rect832" />
    <path
       id="path835"
       d="m 36.060779,273.28373 v 9.59034 h 9.590345"
       style="fill:none;stroke:#000000;stroke-width:2.39759;stroke-linecap:butt;stroke-linejoin:miter;stroke-miterlimit:4;stroke-dasharray:none;stroke-opacity:1" />
    <path
       id="path837"
       style="fill:#ffffff;stroke:#000000;stroke-width:2.39759;stroke-linecap:round;stroke-miterlimit:4;stroke-dasharray:none"
       d="m 21.587191,287.58119 24.392354,-2e-5 9.756942,8.73451 v 39.3053 H 21.587191 Z"
       sodipodi:nodetypes="cccccc" />
    <path
       style="fill:none;stroke:#000000;stroke-width:2.39759;stroke-linecap:butt;stroke-linejoin:miter;stroke-miterlimit:4;stroke-dasharray:none;stroke-opacity:1"
       d="m 45.651124,287.66924 v 9.59035 h 9.590344"
       id="path839" />
    <text
       id="text843"
       y="314.81174"
       x="31.497177"
       style="font-weight:300;font-size:21.5783px;line-height:1.25;font-family:Selawik;-inkscape-font-specification:'Selawik Light';letter-spacing:0px;word-spacing:0px;stroke-width:0.299698"
       xml:space="preserve"><tspan
         style="font-style:normal;font-variant:normal;font-weight:900;font-stretch:normal;font-size:21.5783px;font-family:Roboto;-inkscape-font-specification:'Roboto Heavy';stroke-width:0.299698"
         y="314.81174"
         x="31.497177"
         id="tspan841"
         sodipodi:role="line">C</tspan></text>
    <g
       transform="matrix(0.90228312,0,0,0.90228312,86.168924,47.372761)"
       style="fill:#1a1a1a"
       id="g892">
      <path
         id="path856"
         style="color:#000000;font-style:normal;font-variant:normal;font-weight:normal;font-stretch:normal;font-size:medium;line-height:normal;font-family:sans-serif;font-variant-ligatures:normal;font-variant-position:normal;font-variant-caps:normal;font-variant-numeric:normal;font-variant-alternates:normal;font-variant-east-asian:normal;font-feature-settings:normal;font-variation-settings:normal;text-indent:0;text-align:start;text-decoration:none;text-decoration-line:none;text-decoration-style:solid;text-decoration-color:#000000;letter-spacing:normal;word-spacing:normal;text-transform:none;writing-mode:lr-tb;direction:ltr;text-orientation:mixed;dominant-baseline:auto;baseline-shift:baseline;text-anchor:start;white-space:normal;shape-padding:0;shape-margin:0;inline-size:0;clip-rule:nonzero;display:inline;overflow:visible;visibility:visible;isolation:auto;mix-blend-mode:normal;color-interpolation:sRGB;color-interpolation-filters:linearRGB;solid-color:#000000;solid-opacity:1;vector-effect:none;fill:#1a1a1a;fill-opacity:1;fill-rule:nonzero;stroke:none;stroke-width:8.00001;stroke-linecap:round;stroke-linejoin:miter;stroke-miterlimit:4;stroke-dasharray:none;stroke-dashoffset:0;stroke-opacity:1;color-rendering:auto;image-rendering:auto;shape-rendering:auto;text-rendering:auto;enable-background:accumulate;stop-color:#000000"
         d="m -240,119.99805 c -11.0108,0 -19.99805,8.99308 -19.99805,20.0039 0,11.01083 8.98725,19.99805 19.99805,19.99805 h 32 c 11.0108,0 19.99805,-8.98722 19.99805,-19.99805 0,-2.84407 -0.60834,-5.54722 -1.6875,-8.00195 H -190 c -2.97298,0 -5.42828,1.40607 -6.80469,3.63672 0.51494,1.34954 0.8086,2.81617 0.8086,4.36523 0,6.71721 -5.28672,11.9961 -12.00391,11.9961 h -32 c -6.71719,0 -12.00391,-5.27889 -12.00391,-11.9961 0,-6.7172 5.28672,-12.00195 12.00391,-12.00195 h 29.25195 c 1.7378,-2.98336 4.09739,-5.56432 6.90039,-7.56055 -1.34066,-0.28551 -2.72899,-0.4414 -4.15234,-0.4414 z m 44.9707,4.82031 c -0.89998,0.29925 -1.76878,0.66799 -2.58984,1.11523 0.82169,-0.44698 1.69189,-0.81409 2.5918,-1.11328 -7e-4,-6e-4 -10e-4,-0.001 -0.002,-0.002 z"
         transform="matrix(0.26458333,0,0,0.26458333,0,270.54165)" />
      <path
         id="path870"
         style="color:#000000;font-style:normal;font-variant:normal;font-weight:normal;font-stretch:normal;font-size:medium;line-height:normal;font-family:sans-serif;font-variant-ligatures:normal;font-variant-position:normal;font-variant-caps:normal;font-variant-numeric:normal;font-variant-alternates:normal;font-variant-east-asian:normal;font-feature-settings:normal;font-variation-settings:normal;text-indent:0;text-align:start;text-decoration:none;text-decoration-line:none;text-decoration-style:solid;text-decoration-color:#000000;letter-spacing:normal;word-spacing:normal;text-transform:none;writing-mode:lr-tb;direction:ltr;text-orientation:mixed;dominant-baseline:auto;baseline-shift:baseline;text-anchor:start;white-space:normal;shape-padding:0;shape-margin:0;inline-size:0;clip-rule:nonzero;display:inline;overflow:visible;visibility:visible;isolation:auto;mix-blend-mode:normal;color-interpolation:sRGB;color-interpolation-filters:linearRGB;solid-color:#000000;solid-opacity:1;vector-effect:none;fill:#1a1a1a;fill-opacity:1;fill-rule:nonzero;stroke:none;stroke-width:8.00001;stroke-linecap:round;stroke-linejoin:miter;stroke-miterlimit:4;stroke-dasharray:none;stroke-dashoffset:0;stroke-opacity:1;color-rendering:auto;image-rendering:auto;shape-rendering:auto;text-rendering:auto;enable-background:accumulate;stop-color:#000000"
         d="m -190,119.99805 c -11.0108,0 -19.99805,8.99308 -19.99805,20.0039 0,2.84191 0.60794,5.54358 1.68555,7.9961 H -208 c 2.97419,0 5.42873,-1.40281 6.80469,-3.63086 -0.51494,-1.34894 -0.8086,-2.81618 -0.8086,-4.36524 0,-6.7172 5.28672,-12.00195 12.00391,-12.00195 h 32 c 6.71719,0 12.00391,5.28475 12.00391,12.00195 0,6.71721 -5.28672,11.9961 -12.00391,11.9961 h -29.25 c -1.73796,2.98395 -4.0985,5.56431 -6.90234,7.56054 1.3407,0.28532 2.72895,0.44141 4.15234,0.44141 h 32 c 11.0108,0 19.99805,-8.98722 19.99805,-19.99805 0,-11.01082 -8.98725,-20.0039 -19.99805,-20.0039 z m -9.38281,33.47461 c -0.5409,0.34717 -1.10311,0.66392 -1.68555,0.94531 0.58286,-0.28158 1.14456,-0.59772 1.68555,-0.94531 z"
         transform="matrix(0.26458333,0,0,0.26458333,0,270.54165)" />
    </g>
  </g>
</svg>
